<svg width="30" height="30" viewBox="0 0 30 30" fill="none" xmlns="http://www.w3.org/2000/svg">
<path d="M10.1307 30C11.4565 30 12.7281 29.4721 13.6656 28.5325C14.6031 27.5928 15.1298 26.3183 15.1298 24.9895V19.8813H10.1307C8.80485 19.8813 7.5333 20.4092 6.59579 21.3488C5.65827 22.2885 5.13158 23.563 5.13158 24.8919C5.13158 26.2207 5.65827 27.4952 6.59579 28.4349C7.5333 29.3745 8.80485 29.9024 10.1307 29.9024V30Z" fill="#0ACF83"/>
<path d="M5.00173 15.0009C5.01856 14.3428 5.16461 13.6945 5.43151 13.093C5.69842 12.4916 6.08096 11.9487 6.55728 11.4955C7.03359 11.0422 7.59434 10.6875 8.20749 10.4516C8.82063 10.2157 9.47415 10.1031 10.1307 10.1204H15V19.8813H10.1307C9.47415 19.8986 8.82063 19.7861 8.20749 19.5501C7.59434 19.3142 7.03359 18.9595 6.55728 18.5063C6.08096 18.053 5.69842 17.5102 5.43151 16.9087C5.16461 16.3072 5.01856 15.6589 5.00173 15.0009Z" fill="#A259FF"/>
<path d="M5.00173 4.97972C5.00582 4.31337 5.14249 3.65453 5.40372 3.04177C5.66496 2.429 6.04552 1.87462 6.52313 1.41106C7.00074 0.947509 7.5658 0.584098 8.18525 0.342098C8.8047 0.100099 9.46609 -0.0156277 10.1307 0.00169305H15V10.1204H10.1307C9.45229 10.1383 8.77734 10.0176 8.14699 9.76559C7.51664 9.51359 6.94409 9.13558 6.46421 8.6546C5.98433 8.17363 5.60719 7.59976 5.35576 6.96797C5.10432 6.33617 4.98387 5.65968 5.00173 4.97972Z" fill="#F24E1E"/>
<path d="M14.9998 0.00164795H19.8691C21.2078 0.00164795 22.4918 0.534686 23.4384 1.4835C24.3851 2.43232 24.9169 3.71919 24.9169 5.06101C24.9169 6.40284 24.3851 7.68971 23.4384 8.63853C22.4918 9.58734 21.2078 10.1204 19.8691 10.1204H14.9998V0.00164795Z" fill="#FF7262"/>
<path d="M24.9983 15.0009C25.0237 15.9914 24.7554 16.9672 24.2275 17.805C23.6996 18.6427 22.9357 19.3048 22.0324 19.7074C21.1292 20.1101 20.1271 20.2353 19.1528 20.0672C18.1785 19.8991 17.2759 19.4453 16.5589 18.7631C15.842 18.0809 15.3429 17.2009 15.1249 16.2345C14.9068 15.268 14.9795 14.2585 15.3339 13.3334C15.6882 12.4084 16.3082 11.6095 17.1155 11.0376C17.9228 10.4657 18.8811 10.1465 19.8694 10.1204C20.5259 10.1031 21.1794 10.2157 21.7926 10.4516C22.4057 10.6875 22.9665 11.0422 23.4428 11.4955C23.9191 11.9487 24.3016 12.4916 24.5686 13.093C24.8355 13.6945 24.9815 14.3428 24.9983 15.0009Z" fill="#1ABCFE"/>
</svg>
