<svg width="30" height="30" viewBox="0 0 30 30" fill="none" xmlns="http://www.w3.org/2000/svg">
<path fill-rule="evenodd" clip-rule="evenodd" d="M1.73465 11.5446L0.0560583 17.153C-0.0970479 17.6645 0.0706399 18.2249 0.471489 18.541L15 30L1.73465 11.5446Z" fill="#FCA326"/>
<path fill-rule="evenodd" clip-rule="evenodd" d="M28.2654 11.5446L29.9439 17.153C30.0971 17.6645 29.9294 18.2249 29.5285 18.541L15 30L28.2654 11.5446Z" fill="#FCA326"/>
<path fill-rule="evenodd" clip-rule="evenodd" d="M15 29.9999L9.47614 11.5444H1.73462L15 29.9999Z" fill="#FC6D26"/>
<path fill-rule="evenodd" clip-rule="evenodd" d="M15 29.9999L20.5238 11.5444H28.2654L15 29.9999Z" fill="#FC6D26"/>
<path fill-rule="evenodd" clip-rule="evenodd" d="M28.2652 11.5445H20.5237L23.8507 0.428968C24.0218 -0.143067 24.7672 -0.142912 24.9383 0.428968L28.2652 11.5445Z" fill="#E24329"/>
<path fill-rule="evenodd" clip-rule="evenodd" d="M1.73486 11.5445H9.47638L6.14936 0.428968C5.97824 -0.143067 5.23286 -0.142912 5.06174 0.428968L1.73486 11.5445Z" fill="#E24329"/>
<path fill-rule="evenodd" clip-rule="evenodd" d="M14.9999 30L20.5237 11.5446H9.47607L14.9999 30Z" fill="#E24329"/>
</svg>
