<svg xmlns="http://www.w3.org/2000/svg" viewBox="0 0 30 30" height="30" width="30"><g class="nc-icon-wrapper js-transition-icon" data-effect="scale" data-event="click"><g class="js-transition-icon__state"><path fill-rule="evenodd" clip-rule="evenodd" d="M4 19.5C4 17.0147 6.11066 15 8.71429 15H21.2857C23.8893 15 26 17.0147 26 19.5V25.5C26 27.9853 23.8893 30 21.2857 30H8.71429C6.11066 30 4 27.9853 4 25.5V19.5ZM8.71429 18C7.84641 18 7.14286 18.6716 7.14286 19.5V25.5C7.14286 26.3284 7.84641 27 8.71429 27H21.2857C22.1536 27 22.8571 26.3284 22.8571 25.5V19.5C22.8571 18.6716 22.1536 18 21.2857 18H8.71429Z" fill="#343434"></path><path fill-rule="evenodd" clip-rule="evenodd" d="M8 6.76C8 3.02656 11.134 0 15 0C18.866 0 22 3.02656 22 6.76V13H18.7692V6.76C18.7692 4.74968 17.0817 3.12 15 3.12C12.9183 3.12 11.2308 4.74968 11.2308 6.76V13H8V6.76Z" fill="#343434"></path></g><g class="js-transition-icon__state" aria-hidden="true" style="display: none;"><path fill-rule="evenodd" clip-rule="evenodd" d="M4 19.5C4 17.0147 6.11066 15 8.71429 15H21.2857C23.8893 15 26 17.0147 26 19.5V25.5C26 27.9853 23.8893 30 21.2857 30H8.71429C6.11066 30 4 27.9853 4 25.5V19.5ZM8.71429 18C7.84641 18 7.14286 18.6716 7.14286 19.5V25.5C7.14286 26.3284 7.84641 27 8.71429 27H21.2857C22.1536 27 22.8571 26.3284 22.8571 25.5V19.5C22.8571 18.6716 22.1536 18 21.2857 18H8.71429Z" fill="#343434"></path><path fill-rule="evenodd" clip-rule="evenodd" d="M29 6.76C29 3.02656 26.0899 0 22.5 0C18.9101 0 16 3.02656 16 6.76V13H19V6.76C19 4.74968 20.567 3.12 22.5 3.12C24.433 3.12 26 4.74968 26 6.76V13H29V6.76Z" fill="#343434"></path></g></g><script>!function(){"use strict";if(!window.requestAnimationFrame){var a=null;window.requestAnimationFrame=function(t,i){var e=(new Date).getTime();a||(a=e);var s=Math.max(0,16-(e-a)),n=window.setTimeout(function(){t(e+s)},s);return a=e+s,n}}function r(t,i,e,s){return 1&gt;(t/=s/2)?e/2*t*t*t*t+i:-e/2*((t-=2)*t*t*t-2)+i}function e(t){return t?[1,0]:[0,1]}function t(t){this.element=t,this.svg=function t(i){var e=i.parentNode;if("svg"!==e.tagName)e=t(e);return e;}(this.element),this.getSize(),this.states=this.element.querySelectorAll(".js-transition-icon__state"),this.time={start:null,total:200},this.status={interacted:!1,animating:!1},this.animation={effect:this.element.getAttribute("data-effect"),event:this.element.getAttribute("data-event")},this.init()}t.prototype.getSize=function(){var t=this.svg.getAttribute("viewBox");this.size=t?{width:t.split(" ")[2],height:t.split(" ")[3]}:this.svg.getBoundingClientRect()},t.prototype.init=function(){var t=this;this.svg.addEventListener(t.animation.event,function(){t.status.animating||(t.status.animating=!0,window.requestAnimationFrame(t.triggerAnimation.bind(t)))})},t.prototype.triggerAnimation=function(t){var i=this.getProgress(t);this.animateIcon(i),this.checkProgress(i)},t.prototype.getProgress=function(t){return this.time.start||(this.time.start=t),t-this.time.start},t.prototype.checkProgress=function(t){if(this.time.total&gt;t)window.requestAnimationFrame(this.triggerAnimation.bind(this));else{this.status={interacted:!this.status.interacted,animating:!1},this.time.start=null;var i=e(this.status.interacted);this.states[i[0]].removeAttribute("aria-hidden"),this.states[i[1]].setAttribute("aria-hidden","true")}},t.prototype.animateIcon=function(t){if(t&gt;this.time.total){t=this.time.total;}if(0&gt;t){t=0;};var i=e(this.status.interacted);this.states[i[0]].style.display=t&gt;this.time.total/2?"none":"block",this.states[i[1]].style.display=t&gt;this.time.total/2?"block":"none","scale"==this.animation.effect?this.scaleIcon(t,i[0],i[1]):this.rotateIcon(t,i[0],i[1])},t.prototype.scaleIcon=function(t,i,e){var s=r(Math.min(t,this.time.total/2),1,-.2,this.time.total/2).toFixed(2),n=r(Math.max(t-this.time.total/2,0),.2,-.2,this.time.total/2).toFixed(2);this.states[i].setAttribute("transform","translate("+this.size.width*(1-s)/2+" "+this.size.height*(1-s)/2+") scale("+s+")"),this.states[e].setAttribute("transform","translate("+this.size.width*n/2+" "+this.size.height*n/2+") scale("+(1-n)+")")},t.prototype.rotateIcon=function(t,i,e){var s=r(t,0,180,this.time.total).toFixed(2);this.states[i].setAttribute("transform","rotate(-"+s+" "+this.size.width/2+" "+this.size.height/2+")"),this.states[e].setAttribute("transform","rotate("+(180-s)+" "+this.size.width/2+" "+this.size.height/2+")")};var i=document.querySelectorAll(".js-transition-icon");if(i)for(var s=0;i.length&gt;s;s++)new t(i[s])}();</script></svg>