<svg xmlns="http://www.w3.org/2000/svg" viewBox="0 0 30 30" height="30" width="30"><g class="nc-icon-wrapper js-transition-icon" data-effect="scale" data-event="click"><g class="js-transition-icon__state" style=""><path d="M28.41 12.8571L4.28571 0.803571C3.58286 0.485357 2.86286 0 2.14286 0C0.987857 0 0 0.970714 0 2.14286V27.8571C0 29.0293 0.987857 30 2.14286 30C2.86286 30 3.58286 29.5146 4.28571 29.1964L28.41 17.1429C28.9961 16.8579 30 16.2729 30 15C30 13.7271 28.9961 13.1421 28.41 12.8571ZM3 26.3181V3.69335L26.5 15L3 26.3181Z" fill="#343434"></path></g><g class="js-transition-icon__state" aria-hidden="true" style="display: none;"><path d="M5.45449 0C2.45454 0 0 2.45455 0 5.45452V24.5455C0 27.5455 2.45454 30 5.45449 30C8.45444 30 10.909 27.5455 10.909 24.5455V5.45452C10.9091 2.45455 8.4546 0 5.45449 0ZM8.18189 24.5456C8.18189 26.1821 7.09106 27.2729 5.45465 27.2729C3.81824 27.2729 2.7274 26.1821 2.7274 24.5456V5.45452C2.7274 3.8181 3.81824 2.72726 5.45465 2.72726C7.09106 2.72726 8.18189 3.8181 8.18189 5.45452V24.5456Z" fill="#343434"></path><path d="M24.5455 0C21.5455 0 19.091 2.45455 19.091 5.45452V24.5455C19.091 27.5455 21.5455 30 24.5455 30C27.5455 30 30 27.5455 30 24.5455V5.45452C30 2.45455 27.5455 0 24.5455 0ZM27.2728 24.5456C27.2728 26.1821 26.1819 27.2729 24.5455 27.2729C22.9091 27.2729 21.8183 26.1821 21.8183 24.5456V5.45452C21.8183 3.8181 22.9091 2.72726 24.5455 2.72726C26.1819 2.72726 27.2728 3.8181 27.2728 5.45452V24.5456Z" fill="#343434"></path></g></g><script>!function(){"use strict";if(!window.requestAnimationFrame){var a=null;window.requestAnimationFrame=function(t,i){var e=(new Date).getTime();a||(a=e);var s=Math.max(0,16-(e-a)),n=window.setTimeout(function(){t(e+s)},s);return a=e+s,n}}function r(t,i,e,s){return 1&gt;(t/=s/2)?e/2*t*t*t*t+i:-e/2*((t-=2)*t*t*t-2)+i}function e(t){return t?[1,0]:[0,1]}function t(t){this.element=t,this.svg=function t(i){var e=i.parentNode;if("svg"!==e.tagName)e=t(e);return e;}(this.element),this.getSize(),this.states=this.element.querySelectorAll(".js-transition-icon__state"),this.time={start:null,total:200},this.status={interacted:!1,animating:!1},this.animation={effect:this.element.getAttribute("data-effect"),event:this.element.getAttribute("data-event")},this.init()}t.prototype.getSize=function(){var t=this.svg.getAttribute("viewBox");this.size=t?{width:t.split(" ")[2],height:t.split(" ")[3]}:this.svg.getBoundingClientRect()},t.prototype.init=function(){var t=this;this.svg.addEventListener(t.animation.event,function(){t.status.animating||(t.status.animating=!0,window.requestAnimationFrame(t.triggerAnimation.bind(t)))})},t.prototype.triggerAnimation=function(t){var i=this.getProgress(t);this.animateIcon(i),this.checkProgress(i)},t.prototype.getProgress=function(t){return this.time.start||(this.time.start=t),t-this.time.start},t.prototype.checkProgress=function(t){if(this.time.total&gt;t)window.requestAnimationFrame(this.triggerAnimation.bind(this));else{this.status={interacted:!this.status.interacted,animating:!1},this.time.start=null;var i=e(this.status.interacted);this.states[i[0]].removeAttribute("aria-hidden"),this.states[i[1]].setAttribute("aria-hidden","true")}},t.prototype.animateIcon=function(t){if(t&gt;this.time.total){t=this.time.total;}if(0&gt;t){t=0;};var i=e(this.status.interacted);this.states[i[0]].style.display=t&gt;this.time.total/2?"none":"block",this.states[i[1]].style.display=t&gt;this.time.total/2?"block":"none","scale"==this.animation.effect?this.scaleIcon(t,i[0],i[1]):this.rotateIcon(t,i[0],i[1])},t.prototype.scaleIcon=function(t,i,e){var s=r(Math.min(t,this.time.total/2),1,-.2,this.time.total/2).toFixed(2),n=r(Math.max(t-this.time.total/2,0),.2,-.2,this.time.total/2).toFixed(2);this.states[i].setAttribute("transform","translate("+this.size.width*(1-s)/2+" "+this.size.height*(1-s)/2+") scale("+s+")"),this.states[e].setAttribute("transform","translate("+this.size.width*n/2+" "+this.size.height*n/2+") scale("+(1-n)+")")},t.prototype.rotateIcon=function(t,i,e){var s=r(t,0,180,this.time.total).toFixed(2);this.states[i].setAttribute("transform","rotate(-"+s+" "+this.size.width/2+" "+this.size.height/2+")"),this.states[e].setAttribute("transform","rotate("+(180-s)+" "+this.size.width/2+" "+this.size.height/2+")")};var i=document.querySelectorAll(".js-transition-icon");if(i)for(var s=0;i.length&gt;s;s++)new t(i[s])}();</script></svg>