<svg xmlns="http://www.w3.org/2000/svg" viewBox="0 0 30 30" height="30" width="30"><g class="nc-icon-wrapper js-transition-icon" data-effect="scale" data-event="click"><g class="js-transition-icon__state"><path d="M14.9708 0.0292358C10.1984 0.0292358 6.31582 3.91189 6.31582 8.68418C6.31582 11.6402 7.8058 14.2544 10.0738 15.8164C7.95633 16.5472 6.01547 17.7542 4.38492 19.3848C1.55725 22.2125 0 25.9719 0 29.9708H2.33918C2.33918 23.0057 8.00566 17.3392 14.9708 17.3392C19.7431 17.3392 23.6257 13.4565 23.6257 8.68418C23.6257 3.91184 19.7431 0.0292358 14.9708 0.0292358ZM14.9708 15C11.4882 15 8.655 12.1668 8.655 8.68424C8.655 5.20172 11.4882 2.36842 14.9708 2.36842C18.4533 2.36842 21.2865 5.20166 21.2865 8.68424C21.2865 12.1668 18.4533 15 14.9708 15Z" fill="#343434"></path><path d="M25.0877 22.7193V17.807H22.7486V22.7193H17.8362V25.0585H22.7486V29.9708H25.0877V25.0585H30V22.7193H25.0877Z" fill="#343434"></path></g><g class="js-transition-icon__state" aria-hidden="true" style="display: none;"><path d="M30 19.8606L28.3437 18.2043L24.1273 22.4207L19.9109 18.2043L18.2545 19.8606L22.4709 24.077L18.2545 28.2934L19.9109 29.9497L24.1273 25.7333L28.3437 29.9497L30 28.2934L25.7836 24.077L30 19.8606Z" fill="#343434"></path><path d="M14.9917 0.0083313C10.2127 0.0083313 6.32461 3.89638 6.32461 8.6754C6.32461 11.6356 7.8167 14.2534 10.0879 15.8176C7.96734 16.5493 6.02379 17.7581 4.39096 19.3909C1.55941 22.2226 0 25.9873 0 29.9917H2.34246C2.34246 23.0169 8.01686 17.3425 14.9917 17.3425C19.7707 17.3425 23.6588 13.4545 23.6588 8.6754C23.6588 3.89638 19.7707 0.0083313 14.9917 0.0083313ZM14.9917 15C11.5043 15 8.66707 12.1628 8.66707 8.6754C8.66707 5.18796 11.5043 2.35079 14.9917 2.35079C18.4791 2.35079 21.3163 5.18796 21.3163 8.6754C21.3163 12.1628 18.4791 15 14.9917 15Z" fill="#343434"></path></g></g><script>!function(){"use strict";if(!window.requestAnimationFrame){var a=null;window.requestAnimationFrame=function(t,i){var e=(new Date).getTime();a||(a=e);var s=Math.max(0,16-(e-a)),n=window.setTimeout(function(){t(e+s)},s);return a=e+s,n}}function r(t,i,e,s){return 1>(t/=s/2)?e/2*t*t*t*t+i:-e/2*((t-=2)*t*t*t-2)+i}function e(t){return t?[1,0]:[0,1]}function t(t){this.element=t,this.svg=function t(i){var e=i.parentNode;if("svg"!==e.tagName)e=t(e);return e;}(this.element),this.getSize(),this.states=this.element.querySelectorAll(".js-transition-icon__state"),this.time={start:null,total:200},this.status={interacted:!1,animating:!1},this.animation={effect:this.element.getAttribute("data-effect"),event:this.element.getAttribute("data-event")},this.init()}t.prototype.getSize=function(){var t=this.svg.getAttribute("viewBox");this.size=t?{width:t.split(" ")[2],height:t.split(" ")[3]}:this.svg.getBoundingClientRect()},t.prototype.init=function(){var t=this;this.svg.addEventListener(t.animation.event,function(){t.status.animating||(t.status.animating=!0,window.requestAnimationFrame(t.triggerAnimation.bind(t)))})},t.prototype.triggerAnimation=function(t){var i=this.getProgress(t);this.animateIcon(i),this.checkProgress(i)},t.prototype.getProgress=function(t){return this.time.start||(this.time.start=t),t-this.time.start},t.prototype.checkProgress=function(t){if(this.time.total>t)window.requestAnimationFrame(this.triggerAnimation.bind(this));else{this.status={interacted:!this.status.interacted,animating:!1},this.time.start=null;var i=e(this.status.interacted);this.states[i[0]].removeAttribute("aria-hidden"),this.states[i[1]].setAttribute("aria-hidden","true")}},t.prototype.animateIcon=function(t){if(t>this.time.total){t=this.time.total;}if(0>t){t=0;};var i=e(this.status.interacted);this.states[i[0]].style.display=t>this.time.total/2?"none":"block",this.states[i[1]].style.display=t>this.time.total/2?"block":"none","scale"==this.animation.effect?this.scaleIcon(t,i[0],i[1]):this.rotateIcon(t,i[0],i[1])},t.prototype.scaleIcon=function(t,i,e){var s=r(Math.min(t,this.time.total/2),1,-.2,this.time.total/2).toFixed(2),n=r(Math.max(t-this.time.total/2,0),.2,-.2,this.time.total/2).toFixed(2);this.states[i].setAttribute("transform","translate("+this.size.width*(1-s)/2+" "+this.size.height*(1-s)/2+") scale("+s+")"),this.states[e].setAttribute("transform","translate("+this.size.width*n/2+" "+this.size.height*n/2+") scale("+(1-n)+")")},t.prototype.rotateIcon=function(t,i,e){var s=r(t,0,180,this.time.total).toFixed(2);this.states[i].setAttribute("transform","rotate(-"+s+" "+this.size.width/2+" "+this.size.height/2+")"),this.states[e].setAttribute("transform","rotate("+(180-s)+" "+this.size.width/2+" "+this.size.height/2+")")};var i=document.querySelectorAll(".js-transition-icon");if(i)for(var s=0;i.length>s;s++)new t(i[s])}();</script></svg>